P3
# CREATOR: GIMP PNM Filter Version 1.1
3 2
255
10
20
30
70
80
90
130
140
150
40
50
60
100
110
120
160
170
180
