P2 5 2 65535
256 512 768 1024 1280 33024 33280 33536 33792 34048