P2
5 2
255
114 226 135 41 64
141 53 175 107 0
