P3
# CREATOR: GIMP PNM Filter Version 1.1
5 3
255
255
0
0
255
255
255
255
255
255
255
255
255
0
0
255
255
255
255
255
255
255
255
255
255
255
255
255
255
255
255
0
255
0
255
255
255
255
255
255
255
255
255
0
0
0
